<?xml version="1.0" encoding="UTF-8"?><svg id="uuid-75df45cf-5a99-4c86-932e-5c4a8e69eabf" xmlns="http://www.w3.org/2000/svg" viewBox="0 0 256 256"><defs><style>.uuid-093d5210-27f4-4392-a06c-37dbe757613f{fill:#f63;stroke-width:0px;}</style></defs><circle class="uuid-093d5210-27f4-4392-a06c-37dbe757613f" cx="139.12" cy="105.67" r="10.8"/><circle class="uuid-093d5210-27f4-4392-a06c-37dbe757613f" cx="99.2" cy="64.16" r="5.64"/><circle class="uuid-093d5210-27f4-4392-a06c-37dbe757613f" cx="28.78" cy="128" r="5.64" transform="translate(-82.08 57.84) rotate(-45)"/><path class="uuid-093d5210-27f4-4392-a06c-37dbe757613f" d="M74.05,176.89c-3.12,0-5.64,2.53-5.64,5.64s2.53,5.64,5.64,5.64,5.64-2.53,5.64-5.64-2.53-5.64-5.64-5.64Z"/><path class="uuid-093d5210-27f4-4392-a06c-37dbe757613f" d="M248.72,145.57c9.71-9.7,9.71-25.44,0-35.14l-66.97-66.97c-2.38-2.39-6.25-2.39-8.63,0-1.08,1.07-1.73,2.51-1.77,4.03-.17,6.98-3.24,13.91-9.24,18.8-9.01,7.33-22.25,7.4-31.31.13-11.83-9.49-12.54-26.83-2.11-37.26,4.61-4.61,10.58-7.02,16.62-7.27,1.51-.06,2.92-.71,3.99-1.77l.24-.24c2.38-2.39,2.38-6.25,0-8.63l-3.97-3.97c-9.7-9.71-25.44-9.71-35.14,0L7.28,110.43c-9.71,9.7-9.71,25.44,0,35.14l103.15,103.15c9.7,9.71,25.44,9.71,35.14,0l33.46-33.46c2.66-2.66,6.98-2.66,9.64,0l.28.27c1.22,1.23,1.9,2.88,1.98,4.61.31,6.7,3,13.3,8.12,18.42,11.64,11.65,31.02,10.86,41.62-2.36,8.14-10.15,8.07-24.9-.15-34.98-5.42-6.65-13.07-10.07-20.8-10.31-1.77-.06-3.46-.74-4.7-1.99-2.67-2.66-2.67-6.98,0-9.64l33.7-33.71ZM139.12,78.51c10.42,1.55,9.21,3.6,22.7,7.13,13.49,3.53,34.64,2.5,47.7,7.03,21.29,7.4,17.03,39.28,17.03,39.28-2.78,1.18-34.25-2.13-55.7-2.8-21.11-.66-18.5,3.46-28.19,4.18-1.34.1-3.11.02-5.62-.07-.25-8.35-7.08-15.05-15.5-15.05-7.89,0-14.39,5.9-15.38,13.52l-23.06-1.17c1.83-13.39,17.31-37.11,23.48-41.06,4.99-3.2,21.03-12.72,32.54-11.01ZM128,133.75c0,3.57-2.9,6.47-6.47,6.47s-6.47-2.9-6.47-6.47,2.89-6.47,6.47-6.47,6.47,2.89,6.47,6.47ZM58.53,97.52l26.68-26.68c-.97-2.02-1.53-4.28-1.53-6.68,0-8.57,6.95-15.52,15.52-15.52s15.52,6.95,15.52,15.52-6.95,15.52-15.52,15.52c-2.39,0-4.65-.56-6.68-1.53l-23.65,23.65v28.78h-10.35v-33.07ZM35.46,142c-2.02.97-4.28,1.53-6.68,1.53-8.57,0-15.52-6.95-15.52-15.52s6.95-15.52,15.52-15.52,15.52,6.95,15.52,15.52c0,2.39-.56,4.65-1.53,6.68l11.52,11.52h38.11l-.06.06-7.68,7.68-2.61,2.61h-32.05l-14.55-14.55ZM195.53,173.25c-19.42-.56-33.94-2.74-68.54,5.57-2.95.71-8.03,0-13.7-1.95l-10.83,10.83h-13.78c-2.13,6.02-7.86,10.35-14.62,10.35-8.57,0-15.52-6.95-15.52-15.52s6.95-15.52,15.52-15.52c6.75,0,12.48,4.32,14.62,10.35h9.5l5.03-5.03c-4.2-2.36-8.26-5.3-11.62-8.75l18.26-18.26h.53s.9.03.9.03c2.74,2.43,6.33,3.92,10.28,3.92,3.53,0,6.77-1.19,9.37-3.17l2.95.11,8.6-.11c6.74,0,7.06-.14,15.11,1.64l24.03,7.15,8.17-10.86,8.17,10.86,8.17-10.86,8.17,10.86,7.66-10.86c2.3,3.91,1.5,14.61-3.13,20.79-4.95,6.6-12.14,8.75-23.26,8.42Z"/><path class="uuid-093d5210-27f4-4392-a06c-37dbe757613f" d="M203.38,114.3l5.48,2.6c5.21,1.88,6.76-8.24-2.1-10.77-3.99-1.14-5.64.14-6.25,1.88-.86,2.47.51,5.17,2.87,6.29Z"/></svg>